<svg width="30" height="32" viewBox="0 0 30 32" fill="none" xmlns="http://www.w3.org/2000/svg">
<g clip-path="url(#clip0_12_3)">
<path d="M14.5773 0.170594L0.340039 10.8486C0.160039 10.9814 0.0490585 11.2031 0.0507937 11.427V30.648C0.0507937 31.0207 0.38994 31.3598 0.762594 31.3598H10.3728C10.7454 31.3598 11.0846 31.0207 11.0846 30.648V21.3931H18.9151V30.648C18.9151 31.0207 19.2542 31.3598 19.6269 31.3598H29.237C29.6097 31.3598 29.9488 31.0207 29.9488 30.648V11.427C29.9488 11.2034 29.8396 10.9814 29.6596 10.8486L15.4223 0.170594C15.0953 -0.0210753 14.8587 0.00996066 14.5769 0.170594H14.5773ZM14.9999 1.63894L28.5253 11.7836V29.9368H20.3389V20.6819C20.3389 20.3093 19.9997 19.9701 19.6271 19.9701H10.3728C10.0002 19.9701 9.66104 20.3093 9.66104 20.6819V29.9368H1.4746V11.7836L14.9999 1.63894Z" fill="#878787"/>
</g>
<defs>
<clipPath id="clip0_12_3">
<rect width="30" height="31.3983" fill="white"/>
</clipPath>
</defs>
</svg>
