<svg width="30" height="34" viewBox="0 0 30 34" fill="none" xmlns="http://www.w3.org/2000/svg">
<path d="M3.05728 32.9699H26.9367C28.6253 32.9699 29.9992 31.596 29.9992 29.9074V0.678471C29.9992 0.328971 29.7159 0.0454254 29.3661 0.0454254H5.48673C5.13693 0.0454254 4.85368 0.328971 4.85368 0.678471V6.29284H0.63461C0.284816 6.29284 0.00156403 6.57639 0.00156403 6.92589V29.9075C0.00156403 31.5961 1.37222 32.97 3.05757 32.97L3.05728 32.9699ZM6.11977 1.31156H28.7328V29.9073C28.7328 30.8978 27.927 31.7037 26.9365 31.7037H5.53621C5.54327 31.6937 5.54828 31.6822 5.55564 31.6725C5.63367 31.562 5.70522 31.4472 5.76852 31.3268C5.78059 31.3038 5.79089 31.28 5.80238 31.2564C5.85744 31.1451 5.90573 31.0303 5.94695 30.9119C5.95431 30.8907 5.96315 30.8701 5.97021 30.8486C6.01291 30.7167 6.04529 30.5807 6.06973 30.4417C6.07533 30.4105 6.07945 30.3793 6.08416 30.3478C6.10507 30.2038 6.11949 30.0575 6.11949 29.9076L6.11977 1.31156ZM1.26738 7.55933H4.85337V29.9078C4.85337 30.898 4.04751 31.7039 3.05728 31.7039C2.0703 31.7039 1.26768 30.898 1.26768 29.9078L1.26738 7.55933Z" fill="#878787"/>
<path d="M14.143 8.47236H25.2106C25.5603 8.47236 25.8436 8.18881 25.8436 7.83931C25.8436 7.48982 25.5603 7.20627 25.2106 7.20627L14.143 7.20598C13.7932 7.20598 13.5099 7.48952 13.5099 7.83902C13.5099 8.18881 13.7935 8.47236 14.143 8.47236Z" fill="#878787"/>
<path d="M10.5972 12.8065H25.2113C25.5611 12.8065 25.8443 12.523 25.8443 12.1735C25.8443 11.824 25.5611 11.5404 25.2113 11.5404L10.5972 11.5401C10.2474 11.5401 9.96419 11.8237 9.96419 12.1732C9.96389 12.523 10.2474 12.8065 10.5972 12.8065Z" fill="#878787"/>
<path d="M25.2106 15.8744H14.1422C13.7924 15.8744 13.5092 16.1579 13.5092 16.5074C13.5092 16.8569 13.7924 17.1405 14.1422 17.1405H25.2098C25.5596 17.1405 25.8428 16.8569 25.8428 16.5074C25.8431 16.1579 25.5599 15.8744 25.2101 15.8744H25.2106Z" fill="#878787"/>
<path d="M9.79598 21.4749H25.2106C25.5603 21.4749 25.8436 21.1913 25.8436 20.8418C25.8436 20.4923 25.5603 20.2088 25.2106 20.2088L9.79598 20.2085C9.44618 20.2085 9.16293 20.492 9.16293 20.8415C9.16293 21.1913 9.44618 21.4749 9.79598 21.4749Z" fill="#878787"/>
<path d="M25.2105 24.5427H11.2078C10.858 24.5427 10.5747 24.8263 10.5747 25.1758C10.5747 25.5253 10.858 25.8088 11.2078 25.8088H25.2105C25.5603 25.8088 25.8436 25.5253 25.8436 25.1758C25.8436 24.8263 25.5603 24.5427 25.2105 24.5427Z" fill="#878787"/>
</svg>
