<svg width="30" height="25" viewBox="0 0 30 25" fill="none" xmlns="http://www.w3.org/2000/svg">
<g clip-path="url(#clip0_12_16)">
<path d="M15.2346 6.04517C15.2346 6.18453 15.2282 6.32706 15.2187 6.46641C15.2124 6.53292 15.2092 6.59627 15.1997 6.66278C15.1997 6.65961 15.1839 6.80213 15.1934 6.72929C15.1997 6.67545 15.1775 6.82114 15.1775 6.83698C15.1332 7.10619 15.0667 7.36907 14.9843 7.62879C14.9432 7.75548 14.8957 7.88217 14.845 8.00569C14.8133 8.0817 14.8925 7.90434 14.8355 8.02786C14.8228 8.0532 14.8133 8.07854 14.8006 8.10388C14.769 8.17355 14.7341 8.24323 14.6993 8.31291C14.5758 8.55362 14.4364 8.788 14.2781 9.00969C14.2622 9.03186 14.2464 9.05403 14.2305 9.0762C14.2337 9.07303 14.1514 9.18072 14.1925 9.12687C14.2337 9.07303 14.1514 9.18072 14.1514 9.17755C14.1355 9.19972 14.1165 9.22189 14.0975 9.2409C14.0088 9.34859 13.917 9.44994 13.822 9.55129C13.727 9.64947 13.6256 9.74765 13.5243 9.83951C13.4831 9.87751 13.4419 9.91235 13.3976 9.9472C13.3659 9.97253 13.3342 10.001 13.3026 10.0264C13.2867 10.039 13.1885 10.1119 13.2677 10.0549C13.0555 10.2132 12.837 10.3589 12.6057 10.4856C12.4886 10.549 12.3714 10.6091 12.251 10.6662C12.2257 10.6788 12.0641 10.7453 12.1528 10.7105C12.08 10.739 12.0103 10.7675 11.9375 10.7928C11.6777 10.8879 11.4085 10.9639 11.1361 11.0177C11.0665 11.0304 10.9936 11.0431 10.9239 11.0557C10.8954 11.0589 10.8669 11.0652 10.8384 11.0684C10.9271 11.0557 10.8543 11.0652 10.8353 11.0684C10.6832 11.0842 10.528 11.0969 10.376 11.1032C10.0878 11.1127 9.79957 11.1001 9.51452 11.0684C9.4195 11.0589 9.49235 11.0652 9.51135 11.0684C9.47651 11.0621 9.4385 11.0589 9.40366 11.0526C9.34032 11.0431 9.27697 11.0304 9.21363 11.0177C9.07428 10.9892 8.93492 10.9575 8.79555 10.9164C8.6657 10.8784 8.53901 10.8372 8.41232 10.7928C8.35214 10.7707 8.29513 10.7485 8.23495 10.7263C8.10826 10.6788 8.2888 10.7517 8.21278 10.7168C8.16844 10.6978 8.1241 10.6757 8.07976 10.6567C7.83905 10.5458 7.60784 10.416 7.38611 10.2703C7.3291 10.2322 7.27209 10.1942 7.21508 10.1531C7.19291 10.1372 7.17074 10.1214 7.14857 10.1056C7.15174 10.1087 7.04405 10.0264 7.0979 10.0676C7.15174 10.1087 7.04405 10.0264 7.04722 10.0264C7.02505 10.0105 7.00288 9.99154 6.98387 9.97254C6.92686 9.92503 6.86669 9.87435 6.80967 9.82368C6.61014 9.64315 6.42327 9.44678 6.24908 9.24094C6.23007 9.21877 6.21424 9.19976 6.19523 9.17759C6.1984 9.18076 6.11288 9.07307 6.15406 9.12691C6.19523 9.18076 6.11288 9.07307 6.11605 9.07624C6.10021 9.05407 6.08438 9.0319 6.06854 9.00973C5.98936 8.89571 5.91335 8.78169 5.8405 8.66133C5.76766 8.54098 5.70115 8.42063 5.6378 8.2971C5.61246 8.24642 5.58712 8.19575 5.56495 8.14507C5.54595 8.10707 5.53011 8.06906 5.51428 8.03105C5.4731 7.9392 5.53645 8.0944 5.49527 7.98988C5.39709 7.73967 5.31157 7.48312 5.24823 7.22024C5.21656 7.08722 5.18805 6.95419 5.16588 6.81801C5.15955 6.78317 5.15321 6.74516 5.15005 6.71032C5.15321 6.72932 5.15955 6.80217 5.15005 6.70715C5.14055 6.62797 5.13421 6.54879 5.12788 6.46644C5.10571 6.17822 5.10571 5.89001 5.13104 5.60177C5.13738 5.52893 5.14371 5.45608 5.15321 5.38324C5.15638 5.36423 5.16588 5.29139 5.15321 5.38007C5.15638 5.35156 5.16272 5.32306 5.16588 5.29455C5.18805 5.14569 5.21973 4.99683 5.25456 4.85114C5.32107 4.58193 5.40659 4.31905 5.51111 4.0657C5.4731 4.15438 5.54595 3.99285 5.55545 3.96752C5.58079 3.91051 5.60929 3.85349 5.6378 3.79649C5.70115 3.67297 5.76766 3.54944 5.8405 3.43225C5.90701 3.31823 5.97986 3.20738 6.05588 3.09969C6.09072 3.04902 6.12872 2.99834 6.16673 2.94767C6.11289 3.02051 6.16673 2.94767 6.18257 2.92866C6.21424 2.89066 6.24275 2.85265 6.27441 2.81781C6.44228 2.61827 6.62598 2.42824 6.82234 2.25404C6.91419 2.17169 7.00921 2.08934 7.1074 2.01333C7.03138 2.07034 7.18658 1.95632 7.21191 1.93732C7.27526 1.89298 7.3386 1.8518 7.40195 1.80746C7.62999 1.6586 7.86753 1.52875 8.11459 1.41473C8.13993 1.40206 8.16527 1.39256 8.1906 1.37989C8.31413 1.32288 8.13676 1.40206 8.21277 1.37039C8.27295 1.34822 8.32996 1.32288 8.39014 1.30071C8.52316 1.2532 8.65619 1.20886 8.79238 1.17085C8.92856 1.13284 9.06793 1.09801 9.21045 1.0695C9.26747 1.05683 9.32448 1.04733 9.38148 1.03783C9.41632 1.03149 9.45433 1.02516 9.48917 1.02199C9.52401 1.01566 9.51768 1.01883 9.47017 1.02516C9.49867 1.02199 9.52718 1.01883 9.55568 1.01566C9.8344 0.983986 10.1163 0.974485 10.395 0.987153C10.5343 0.993488 10.6737 1.00299 10.8131 1.01883C10.8384 1.02199 10.9334 1.03466 10.8384 1.02199C10.8669 1.02516 10.8954 1.03149 10.9239 1.03466C11.0031 1.04733 11.0791 1.06 11.1583 1.07584C11.4307 1.12968 11.6967 1.20569 11.9564 1.30388C12.0229 1.32921 12.0895 1.35455 12.1528 1.37989C12.0673 1.34505 12.2035 1.40206 12.232 1.41473C12.3587 1.47174 12.4854 1.53508 12.6057 1.60476C12.7261 1.67127 12.8464 1.74412 12.9636 1.82013C13.0111 1.85181 13.0555 1.88031 13.103 1.91198C13.1378 1.93732 13.1695 1.95949 13.2043 1.98483C13.2201 1.9975 13.3183 2.07035 13.2391 2.01017C13.4482 2.1717 13.6414 2.34906 13.8251 2.53592C13.9169 2.63094 14.0024 2.72912 14.088 2.83047C14.1291 2.87798 14.1671 2.92549 14.2051 2.97617C14.1481 2.90332 14.2051 2.97617 14.2178 2.99517C14.2463 3.03318 14.2748 3.07435 14.3033 3.11235C14.4554 3.32773 14.5916 3.55576 14.7087 3.79332C14.7404 3.85667 14.7689 3.92001 14.8006 3.98335C14.8133 4.01186 14.8703 4.14805 14.8354 4.06253C14.8924 4.19873 14.9431 4.33808 14.9874 4.48061C15.073 4.74666 15.1363 5.01904 15.1806 5.29461C15.1838 5.32311 15.1901 5.35162 15.1933 5.38012C15.1806 5.28511 15.1933 5.38012 15.1965 5.40546C15.2028 5.47197 15.2092 5.53532 15.2155 5.60183C15.2282 5.75069 15.2313 5.89955 15.2345 6.04524C15.2345 6.29228 15.453 6.53299 15.7096 6.52032C15.9661 6.50765 16.1847 6.31128 16.1847 6.04524C16.1783 4.81002 15.8014 3.57481 15.0761 2.56761C14.354 1.56991 13.3658 0.812959 12.2098 0.388558C9.87238 -0.469743 7.12002 0.28087 5.54607 2.2097C4.75425 3.18203 4.27599 4.35076 4.17782 5.60178C4.07964 6.8275 4.38369 8.08807 5.01713 9.13958C5.63792 10.1689 6.57539 11.0209 7.67126 11.5118C8.83998 12.0344 10.1291 12.1833 11.3896 11.9331C13.7871 11.4548 15.7382 9.42779 16.1056 7.00485C16.1531 6.68497 16.1848 6.36825 16.1848 6.0452C16.1848 5.79816 15.9662 5.55745 15.7097 5.57012C15.45 5.58279 15.2346 5.77916 15.2346 6.0452L15.2346 6.04517Z" fill="#878787"/>
<path d="M26.0693 8.26217C26.0693 8.35718 26.0661 8.45537 26.0598 8.55039C26.0566 8.60106 26.0503 8.65174 26.0471 8.70242C26.0471 8.70875 26.0376 8.7816 26.044 8.72459C26.0503 8.66441 26.0345 8.7911 26.0345 8.7911C26.0028 8.98113 25.9585 9.168 25.8983 9.3517C25.8698 9.44038 25.8381 9.52589 25.8064 9.60824C25.8001 9.62408 25.7684 9.69059 25.8064 9.61141C25.7969 9.63041 25.7906 9.64942 25.7811 9.66842C25.7557 9.7191 25.7336 9.76977 25.7082 9.82045C25.6227 9.98831 25.5277 10.1467 25.4169 10.3019C25.401 10.324 25.3852 10.3462 25.3693 10.3684C25.3662 10.3747 25.325 10.4286 25.3567 10.3874C25.382 10.3525 25.3155 10.4381 25.3028 10.4539C25.2363 10.5331 25.1666 10.6123 25.097 10.6851C25.0336 10.7484 24.9703 10.8118 24.9038 10.872C24.8689 10.9036 24.8309 10.9353 24.7929 10.967C24.7771 10.9797 24.7612 10.9923 24.7454 11.005C24.7391 11.0113 24.6694 11.0652 24.7106 11.0303C24.7517 10.9987 24.6979 11.0398 24.6916 11.043C24.6694 11.0588 24.6472 11.0747 24.6251 11.0905C24.5902 11.1158 24.5554 11.138 24.5237 11.1602C24.4382 11.2172 24.3463 11.271 24.2577 11.3217C24.1785 11.3661 24.0961 11.4072 24.0169 11.4452C23.9916 11.4579 23.9029 11.4959 23.9758 11.4642C23.9251 11.4864 23.8713 11.5054 23.8174 11.5244C23.6305 11.5909 23.4405 11.6448 23.2441 11.686C23.203 11.6955 23.1586 11.7018 23.1175 11.7081C23.0889 11.7145 23.0604 11.7176 23.0319 11.7208C23.0383 11.7208 23.1079 11.7113 23.0509 11.7176C22.9496 11.7303 22.8482 11.7366 22.7437 11.7398C22.5378 11.7493 22.332 11.7366 22.1261 11.7176C22.0691 11.7113 22.1356 11.7208 22.1451 11.7208C22.1229 11.7176 22.1008 11.7145 22.0818 11.7113C22.0311 11.7018 21.9836 11.6955 21.9329 11.686C21.8347 11.6669 21.7365 11.6416 21.6415 11.6163C21.5465 11.5909 21.4515 11.5593 21.3596 11.5244C21.3185 11.5086 21.2805 11.4959 21.2425 11.4801C21.2361 11.4769 21.1728 11.4516 21.2203 11.4706C21.2773 11.4959 21.1728 11.4484 21.1633 11.4421C20.9922 11.3629 20.8275 11.271 20.6724 11.1697C20.5963 11.1222 20.5235 11.0683 20.4506 11.0145C20.5267 11.0715 20.419 10.9892 20.4 10.9733C20.3588 10.9385 20.3145 10.9005 20.2733 10.8656C20.1339 10.7421 20.0041 10.6059 19.8869 10.4634C19.8679 10.4412 19.852 10.4222 19.833 10.4001C19.8299 10.3969 19.7887 10.3399 19.8204 10.3842C19.8457 10.4191 19.7697 10.3145 19.7602 10.2987C19.7032 10.2195 19.6525 10.1372 19.6018 10.0548C19.5543 9.97881 19.5131 9.89963 19.472 9.81728C19.4498 9.77294 19.4276 9.7286 19.4086 9.68426C19.3991 9.66525 19.3928 9.64625 19.3833 9.62725C19.3516 9.56074 19.4086 9.69376 19.3833 9.62408C19.3104 9.44038 19.2471 9.25351 19.2027 9.06031C19.1806 8.96846 19.1616 8.87978 19.1457 8.78793C19.1426 8.76576 19.1394 8.74675 19.1362 8.72458C19.1236 8.64857 19.1457 8.79743 19.1362 8.72141C19.1299 8.67074 19.1267 8.62006 19.1204 8.56939C19.1046 8.36352 19.1046 8.15764 19.1204 7.95178C19.1236 7.90744 19.1267 7.8631 19.1331 7.82192C19.1426 7.72691 19.1362 7.79975 19.1331 7.81875C19.1362 7.79658 19.1394 7.77441 19.1426 7.75541C19.1584 7.65722 19.1774 7.55904 19.2028 7.46086C19.2503 7.26766 19.3104 7.08079 19.3833 6.89709C19.4023 6.84641 19.3801 6.90659 19.3769 6.91292C19.3896 6.88758 19.3991 6.86225 19.4118 6.83691C19.4308 6.7989 19.4466 6.7609 19.4656 6.72289C19.51 6.63737 19.5575 6.55186 19.605 6.46634C19.6557 6.38399 19.7063 6.30164 19.7633 6.22246C19.7887 6.18762 19.8109 6.15595 19.8362 6.12111C19.7824 6.19396 19.8742 6.07677 19.89 6.0546C20.0104 5.91208 20.1402 5.77905 20.2764 5.65236C20.3113 5.62069 20.3493 5.58902 20.3873 5.55735C20.4031 5.54151 20.5045 5.4655 20.4696 5.49084C20.4348 5.51618 20.5235 5.45283 20.5393 5.44016C20.5837 5.40849 20.6312 5.37682 20.6755 5.34515C20.8339 5.2438 20.9986 5.15195 21.1664 5.07277C21.1918 5.0601 21.2171 5.0506 21.2425 5.03793C21.2361 5.0411 21.1759 5.06643 21.2266 5.04426C21.271 5.02526 21.3185 5.00942 21.3628 4.99042C21.4547 4.95558 21.5497 4.92707 21.6447 4.89857C21.7334 4.87323 21.8252 4.85106 21.9139 4.83206C21.9646 4.82256 22.0121 4.81306 22.0628 4.80356C22.0849 4.80039 22.1039 4.79722 22.1261 4.79406C22.2053 4.78139 22.0121 4.80672 22.1515 4.79089C22.351 4.77189 22.5474 4.76238 22.7469 4.76872C22.8419 4.77188 22.9369 4.78139 23.0319 4.79089C23.0509 4.79406 23.1269 4.80356 23.0351 4.79089C23.0573 4.79406 23.0794 4.79722 23.0984 4.80039C23.1491 4.80989 23.1966 4.81623 23.2473 4.82573C23.4405 4.86373 23.6337 4.91758 23.8206 4.98726C23.8681 5.00309 23.9124 5.0221 23.9568 5.0411C24.0074 5.06011 23.9473 5.03793 23.9409 5.03477C23.9599 5.04427 23.9789 5.0506 23.9979 5.0601C24.0929 5.10445 24.1848 5.15195 24.2767 5.20263C24.3558 5.24697 24.4318 5.29448 24.5079 5.34198C24.5427 5.36415 24.5775 5.38633 24.6124 5.41166C24.6345 5.4275 24.6567 5.44333 24.6789 5.45917C24.6852 5.46551 24.7549 5.51618 24.7137 5.48451C24.6789 5.45917 24.7802 5.53835 24.7961 5.55102C24.8278 5.57636 24.8594 5.60486 24.8911 5.63337C24.9639 5.69671 25.0336 5.76322 25.1001 5.8329C25.1666 5.90258 25.2332 5.97543 25.2933 6.04828C25.3187 6.07995 25.3472 6.11162 25.3725 6.14329C25.3155 6.07045 25.4073 6.1908 25.4232 6.21297C25.534 6.37133 25.6354 6.5392 25.7241 6.71339C25.7431 6.7514 25.7621 6.78941 25.7779 6.82742C25.7906 6.85275 25.8001 6.87809 25.8128 6.90343C25.8096 6.8971 25.7843 6.83692 25.8064 6.88759C25.8444 6.97944 25.8761 7.07129 25.9078 7.16631C25.968 7.35634 26.0155 7.54955 26.0471 7.74905C26.0503 7.77122 26.0535 7.79339 26.0566 7.8124C26.0566 7.80606 26.0471 7.73639 26.0535 7.7934C26.0598 7.84407 26.063 7.89475 26.0693 7.94542C26.0661 8.05628 26.0693 8.1608 26.0693 8.26215C26.0693 8.50919 26.2878 8.74991 26.5444 8.73723C26.8009 8.72457 27.0195 8.5282 27.0195 8.26215C27.01 6.39983 25.8286 4.73384 24.0866 4.08774C22.3763 3.45427 20.3429 4.00539 19.1837 5.41481C18.5914 6.13695 18.2399 6.99844 18.1607 7.9296C18.0847 8.83858 18.3127 9.77611 18.7846 10.5521C19.757 12.1547 21.6573 12.9687 23.4912 12.6013C25.2395 12.2497 26.6805 10.7643 26.9529 9.00011C26.9909 8.75623 27.0163 8.50918 27.0163 8.26215C27.0163 8.01512 26.7977 7.77439 26.5412 7.78707C26.2878 7.79974 26.0724 7.99611 26.0693 8.26215L26.0693 8.26217Z" fill="#878787"/>
<path d="M19.3801 20.5413C19.3801 21.1557 19.396 21.7702 19.3801 22.3846C19.3801 22.4131 19.3769 22.4448 19.3769 22.4733C19.3738 22.6095 19.3991 22.3878 19.3706 22.5208C19.3548 22.5905 19.3389 22.6602 19.3199 22.7299C19.3073 22.771 19.2946 22.809 19.2756 22.8502C19.3104 22.7679 19.2788 22.8375 19.2724 22.8534C19.2313 22.9262 19.1901 22.9991 19.1457 23.0688C19.0761 23.1796 19.2059 23.0086 19.1172 23.1068C19.0887 23.1384 19.0634 23.1701 19.0317 23.1986C18.9842 23.2493 18.9304 23.2968 18.8765 23.338C18.943 23.2841 18.886 23.3285 18.8734 23.338C18.8385 23.3601 18.8037 23.3855 18.7688 23.4045C18.7372 23.4235 18.7087 23.4361 18.677 23.4551C18.658 23.4646 18.639 23.4741 18.62 23.4837C18.6675 23.4646 18.6675 23.4646 18.6168 23.4837C18.5503 23.5058 18.4838 23.528 18.4141 23.547C18.3729 23.5565 18.3286 23.566 18.2874 23.5723C18.3761 23.5597 18.3001 23.5692 18.2843 23.5692C18.2367 23.5692 18.1924 23.5723 18.1449 23.5755H18.0784H15.3197H10.2395H5.13391H2.29607H2.21689H2.20422C2.15988 23.5755 2.11554 23.5723 2.07119 23.5692C1.935 23.566 2.12504 23.5818 2.04586 23.566C1.99518 23.5565 1.94767 23.547 1.897 23.5343C1.82732 23.5153 1.7608 23.4932 1.69429 23.4678C1.78297 23.5027 1.60878 23.4203 1.58027 23.4045C1.54543 23.3823 1.51059 23.3601 1.47575 23.338C1.3649 23.2683 1.51693 23.3728 1.45675 23.3253C1.3934 23.2714 1.33323 23.2144 1.27622 23.1543C1.25405 23.1289 1.22871 23.1036 1.20971 23.0751C1.27305 23.1574 1.19387 23.0466 1.18437 23.0371C1.14636 22.9769 1.11469 22.9167 1.07985 22.8534C1.0165 22.7394 1.09569 22.9041 1.06718 22.8312C1.05451 22.7995 1.04184 22.7647 1.03234 22.7299C1.007 22.6475 0.984832 22.5652 0.972161 22.4796C0.987997 22.5873 0.972161 22.4448 0.972161 22.4321C0.972161 22.4036 0.968994 22.372 0.968994 22.3435V22.3213V22.1598V21.5992V20.5603C0.968994 20.3037 0.981663 20.0503 1.01017 19.797C1.01017 19.7843 1.02917 19.6418 1.01334 19.7494C1.0165 19.7209 1.02284 19.6924 1.026 19.6639C1.03867 19.5847 1.05134 19.5056 1.06718 19.4296C1.09885 19.268 1.13369 19.1065 1.17803 18.9481C1.25405 18.6599 1.34906 18.378 1.46309 18.1025C1.42191 18.2006 1.47575 18.0708 1.48209 18.0613C1.49793 18.0296 1.51059 17.9979 1.52643 17.9663C1.5581 17.8966 1.59294 17.8269 1.62778 17.7572C1.69746 17.621 1.7703 17.4848 1.84949 17.3518C1.92233 17.2315 1.99518 17.1143 2.07436 17.0003C2.1187 16.9369 2.16304 16.8736 2.20738 16.8134C2.22639 16.7849 2.24856 16.7564 2.27073 16.731C2.3024 16.6867 2.30557 16.6867 2.2739 16.7279C2.28973 16.7057 2.30874 16.6835 2.32457 16.6614C2.50827 16.4333 2.70464 16.218 2.91687 16.0184C3.02773 15.9139 3.14174 15.8094 3.25893 15.7112C3.31277 15.6668 3.36662 15.6225 3.42046 15.5813C3.35395 15.6352 3.41096 15.5908 3.42363 15.5781C3.46797 15.5433 3.51231 15.5116 3.55665 15.48C3.7942 15.3089 4.04441 15.1537 4.30098 15.0144C4.43717 14.9415 4.57336 14.8719 4.71589 14.8085C4.74122 14.7958 4.76656 14.7863 4.7919 14.7737C4.91859 14.7167 4.70322 14.8085 4.83307 14.7547C4.91225 14.723 4.99144 14.6913 5.07062 14.6628C5.36517 14.5551 5.66604 14.4696 5.97328 14.4031C6.11581 14.3746 6.25517 14.3493 6.39769 14.3271C6.54021 14.3049 6.29951 14.3366 6.4452 14.3208C6.4737 14.3176 6.50221 14.3144 6.53071 14.3113C6.61939 14.3018 6.70491 14.2954 6.7936 14.2891C6.95196 14.2796 7.11032 14.2732 7.26868 14.2732H8.90299C10.3029 14.2732 11.7028 14.2701 13.0996 14.2732C14.4361 14.2764 15.6935 14.6818 16.8021 15.4768C16.9446 15.5813 16.9921 15.6161 17.1346 15.7365C17.2677 15.8505 17.3944 15.9677 17.5179 16.0881C17.6351 16.2052 17.7491 16.3256 17.8599 16.4523C17.9169 16.5188 17.974 16.5853 18.0278 16.6518C18.0468 16.6772 18.069 16.7025 18.088 16.7247C18.0436 16.6677 18.1482 16.8039 18.1576 16.8165C18.354 17.0857 18.5314 17.3708 18.6866 17.6653C18.7689 17.8205 18.8449 17.9789 18.9114 18.1404C18.8829 18.0771 18.9146 18.1499 18.9178 18.1594C18.9368 18.2037 18.9526 18.2481 18.9716 18.2956C19.0065 18.3874 19.0381 18.4761 19.0666 18.568C19.1743 18.8942 19.2567 19.2268 19.3105 19.5625C19.3169 19.5942 19.32 19.629 19.3264 19.6607C19.3517 19.819 19.3169 19.572 19.3359 19.7304C19.3454 19.8127 19.3549 19.8951 19.3612 19.9774C19.3707 20.1706 19.377 20.3543 19.3802 20.5412C19.3802 20.7882 19.5987 21.0289 19.8553 21.0163C20.1118 21.0036 20.3304 20.8072 20.3304 20.5412C20.324 19.0431 19.8553 17.5545 18.9716 16.3414C18.0595 15.0903 16.7831 14.1465 15.3103 13.6651C14.4425 13.3832 13.5524 13.3199 12.6498 13.3199H10.268H7.81023C7.0754 13.3199 6.35332 13.3389 5.63436 13.5004C3.06889 14.08 0.962697 16.1133 0.272234 18.6439C0.0125197 19.5941 0.0188555 20.5538 0.0188555 21.5293C0.0188555 21.8682 -0.00648229 22.2166 0.0315245 22.5555C0.117042 23.2807 0.547785 23.9522 1.21288 24.2784C1.65629 24.497 2.10286 24.5192 2.57793 24.5192H4.00317H8.82367H14.2681H17.8091C18.3127 24.5192 18.7973 24.4875 19.2534 24.2214C19.8995 23.8414 20.3049 23.1477 20.3366 22.4034C20.3493 22.0835 20.3366 21.7604 20.3366 21.4374V20.5379C20.3366 20.2909 20.1181 20.0502 19.8615 20.0628C19.5955 20.0787 19.3801 20.275 19.3801 20.5411L19.3801 20.5413Z" fill="#878787"/>
<path d="M29.0375 19.1351V19.6799C29.0375 19.7591 29.0375 19.8414 29.0311 19.9206C29.0406 19.8129 29.0248 19.9491 29.0216 19.9649C29.0121 20.0061 28.9963 20.0473 28.9868 20.0885C28.9551 20.2152 29.0121 20.041 28.9804 20.1106C28.9614 20.155 28.9361 20.1993 28.9108 20.2405C28.8886 20.2753 28.8664 20.3102 28.8411 20.345C28.9044 20.2627 28.8189 20.3672 28.8094 20.3767C28.7904 20.3957 28.7714 20.4179 28.7492 20.4369C28.7397 20.4464 28.6352 20.5319 28.7176 20.4685C28.6511 20.5192 28.5782 20.5572 28.5022 20.5984C28.4832 20.6079 28.4198 20.6269 28.499 20.5984C28.4452 20.6174 28.3913 20.6332 28.3375 20.6459C28.3217 20.6491 28.1855 20.6649 28.2931 20.6554C28.2551 20.6586 28.2203 20.6617 28.1823 20.6617H28.157H28.1158H26.6304H21.2588H19.8525C20.0109 20.8201 20.1692 20.9785 20.3276 21.1368C20.3276 20.3767 20.3086 19.6292 20.1344 18.8817C19.9064 17.9094 19.4629 16.9814 18.8548 16.1864C18.5001 15.724 18.1042 15.3059 17.6513 14.9417V15.6132C17.9205 15.3598 18.1042 15.2141 18.4177 15.0178C18.5603 14.9291 18.7028 14.8467 18.8517 14.7739C18.9182 14.739 18.9878 14.7074 19.0544 14.6757C19.067 14.6694 19.1652 14.6282 19.1019 14.6535C19.1494 14.6345 19.1969 14.6155 19.2412 14.5997C19.5769 14.473 19.9222 14.3875 20.2737 14.3273C20.2801 14.3273 20.3656 14.3146 20.3022 14.321C20.3529 14.3146 20.4068 14.3083 20.4574 14.302C20.5366 14.2956 20.6126 14.2893 20.6918 14.283C20.7932 14.2766 20.8913 14.2766 20.9927 14.2735C21.6357 14.2703 22.2818 14.2735 22.9247 14.2735H23.9636H24.1726C24.2644 14.2735 24.3531 14.2766 24.445 14.2798C24.5178 14.283 24.5907 14.2893 24.6635 14.2956C24.7079 14.2988 24.749 14.3051 24.7934 14.3083C24.8979 14.3178 24.7269 14.2956 24.8409 14.3146C25.1228 14.359 25.4015 14.4223 25.6739 14.511C25.8069 14.5553 25.9399 14.6029 26.0698 14.6567C25.9811 14.6187 26.1585 14.6979 26.187 14.7105C26.263 14.7454 26.339 14.7834 26.4118 14.8246C26.6589 14.9544 26.8901 15.1064 27.1181 15.2711C27.229 15.3535 27.0484 15.211 27.1529 15.2996C27.1751 15.3186 27.1973 15.3345 27.2163 15.3535C27.2701 15.3978 27.324 15.4422 27.3747 15.4897C27.4887 15.591 27.5995 15.6987 27.704 15.8096C27.8086 15.9204 27.9068 16.0376 28.0049 16.1548C28.0936 16.2625 27.9511 16.0788 28.0334 16.1896C28.0588 16.2245 28.0841 16.2561 28.1063 16.291C28.1538 16.3575 28.2013 16.4272 28.2456 16.4969C28.328 16.6267 28.4072 16.7597 28.4768 16.8928C28.5149 16.9656 28.5529 17.0416 28.5909 17.1176C28.6035 17.143 28.613 17.1683 28.6257 17.1936C28.6384 17.219 28.6479 17.2443 28.6606 17.2697C28.6415 17.2221 28.6415 17.2221 28.6606 17.2728C28.7777 17.5705 28.8728 17.8746 28.9361 18.1882C28.9519 18.2642 28.9646 18.3434 28.9773 18.4225C28.9804 18.4352 28.9994 18.5777 28.9836 18.4669C28.9899 18.5112 28.9931 18.5524 28.9994 18.5967C29.028 18.7836 29.0375 18.961 29.0375 19.1352C29.0375 19.3822 29.256 19.6229 29.5125 19.6103C29.7691 19.5976 29.9876 19.4012 29.9876 19.1352C29.9813 17.8144 29.5284 16.5507 28.7112 15.5182C27.9448 14.5459 26.8457 13.8332 25.6485 13.5197C24.8662 13.317 24.0776 13.3328 23.2762 13.3328H21.056C19.5357 13.3328 18.0915 13.9029 16.9862 14.9449C16.8151 15.1065 16.7898 15.458 16.9862 15.6164C17.3504 15.9109 17.6829 16.2372 17.9807 16.5982C18.0155 16.6394 18.0503 16.6837 18.0852 16.7281C18.0408 16.6711 18.1295 16.7883 18.139 16.8009C18.2087 16.8959 18.2784 16.9941 18.3417 17.0923C18.4716 17.2918 18.5919 17.4977 18.7028 17.7099C18.7535 17.8081 18.8042 17.9095 18.8485 18.0108C18.858 18.033 18.8675 18.0551 18.877 18.0773C18.8802 18.0868 18.9182 18.1787 18.8992 18.1312C18.8833 18.09 18.9118 18.1628 18.9118 18.1628C18.9277 18.2008 18.9403 18.2388 18.9562 18.2737C19.0385 18.4922 19.1114 18.7171 19.1716 18.942C19.2349 19.1795 19.2824 19.4202 19.3204 19.6641C19.3204 19.6641 19.3331 19.7433 19.3267 19.6989C19.3204 19.6483 19.3331 19.7496 19.3331 19.7591C19.3394 19.8161 19.3457 19.8763 19.3521 19.9333C19.3648 20.06 19.3711 20.1835 19.3743 20.3102C19.3838 20.5858 19.3774 20.8613 19.3774 21.1368C19.3774 21.3934 19.596 21.6119 19.8525 21.6119H23.7228C25.1829 21.6119 26.6462 21.6151 28.1063 21.6119C28.7302 21.6119 29.294 21.3332 29.6583 20.8233C30.0225 20.3165 29.9845 19.7242 29.9845 19.1352C29.9845 18.8881 29.766 18.6474 29.5094 18.6601C29.2529 18.6728 29.0375 18.8691 29.0375 19.1352L29.0375 19.1351Z" fill="#878787"/>
</g>
<defs>
<clipPath id="clip0_12_16">
<rect width="30" height="24.556" fill="white"/>
</clipPath>
</defs>
</svg>
