<svg width="30" height="30" viewBox="0 0 30 30" fill="none" xmlns="http://www.w3.org/2000/svg">
<path d="M15 0.666607C22.9 0.666607 29.3333 7.09994 29.3333 14.9999C29.3333 22.8999 22.9 29.3333 15 29.3333C7.1 29.3333 0.666667 22.8999 0.666667 14.9999C0.666667 7.09994 7.1 0.666607 15 0.666607ZM15 0C6.73333 0 0 6.7 0 15C0 23.3 6.73333 30 15 30C23.2667 30 30 23.3 30 15C30 6.7 23.2667 0 15 0Z" fill="#878787"/>
<path d="M15 17.3667C18.8 17.3667 22.3 19.3668 24.2333 22.6333C21.9665 25.4333 18.5999 26.9999 15 26.9999C11.4001 26.9999 8.03333 25.4333 5.76667 22.6666C7.7 19.3999 11.2001 17.3666 15 17.3666V17.3667ZM15 16.6998C10.6666 16.6998 6.86667 19.133 4.96667 22.6998C7.29994 25.6996 10.9333 27.633 15 27.633C19.0667 27.633 22.7333 25.6997 25.0333 22.6998C23.1335 19.1332 19.3335 16.6998 15 16.6998Z" fill="#878787"/>
<path d="M15 17.3667C18.8 17.3667 22.3 19.3668 24.2333 22.6333C21.9665 25.4333 18.5999 26.9999 15 26.9999C11.4001 26.9999 8.03333 25.4333 5.76667 22.6666C7.7 19.3999 11.2001 17.3666 15 17.3666V17.3667ZM15 16.6998C10.6666 16.6998 6.86667 19.133 4.96667 22.6998C7.29994 25.6996 10.9333 27.633 15 27.633C19.0667 27.633 22.7333 25.6997 25.0333 22.6998C23.1335 19.1332 19.3335 16.6998 15 16.6998Z" fill="#878787"/>
<path d="M15 7.83333C17.0333 7.83333 18.7 9.5 18.7 11.5333C18.7 13.5667 17.0333 15.2333 15 15.2333C12.9667 15.2333 11.3 13.5667 11.3 11.5333C11.3 9.5 12.9667 7.83333 15 7.83333ZM15 7.16649C12.6 7.16649 10.6334 9.1331 10.6334 11.5331C10.6334 13.9331 12.6 15.8999 15 15.8999C17.4 15.8999 19.3666 13.9333 19.3666 11.5333C19.3666 9.13333 17.4 7.16649 15 7.16649Z" fill="#878787"/>
</svg>
