<svg width="30" height="32" viewBox="0 0 30 32" fill="none" xmlns="http://www.w3.org/2000/svg">
<g clip-path="url(#clip0_12_76)">
<path d="M12.8631 0.038269C11.6922 0.038269 10.7274 1.0031 10.7274 2.17399V3.67558C9.1903 4.22303 7.79155 5.04731 6.58958 6.10024L5.28807 5.37725C4.26788 4.8067 2.94534 5.1677 2.37401 6.18909C1.6664 7.49454 0.915891 8.8104 0.283031 9.91525C-0.291983 10.9434 0.0935928 12.2568 1.11725 12.8296L2.41875 13.5637C2.29982 14.2639 2.18512 14.9653 2.18512 15.6995C2.18512 16.4341 2.29958 17.1454 2.41875 17.8461L1.11725 18.5802C0.0936246 19.1528 -0.29199 20.4664 0.283031 21.4946C1.02934 22.7799 1.77172 24.1246 2.37401 25.2207C2.9453 26.2421 4.26814 26.6034 5.28807 26.0326L6.58958 25.3096C7.79123 26.3625 9.1903 27.187 10.7274 27.7342V29.2246C10.7274 30.3955 11.6922 31.3603 12.8631 31.3603H17.1343C18.3051 31.3603 19.27 30.3955 19.27 29.2246V27.7342C20.8128 27.186 22.2135 26.3556 23.4187 25.2984L24.7202 26.0326C25.7404 26.6031 27.0518 26.2421 27.6233 25.2207L29.7143 21.4946C30.2893 20.4664 29.9149 19.153 28.8913 18.5802L27.5898 17.8461C27.7087 17.1454 27.8122 16.4338 27.8122 15.6995C27.8122 14.9655 27.7084 14.2639 27.5898 13.5637L28.8913 12.8296C29.9149 12.257 30.2893 10.9434 29.7143 9.91525L27.6233 6.18909C27.052 5.16769 25.7404 4.80642 24.7202 5.37725L23.4187 6.10024C22.2146 5.04483 20.8105 4.22301 19.27 3.67558V2.17399C19.27 1.0031 18.3051 0.038269 17.1343 0.038269H12.8631ZM12.8631 1.46187H17.1343C17.5409 1.46187 17.8461 1.76701 17.8461 2.17367V4.13136C17.8426 4.43848 18.0628 4.73468 18.3578 4.82111C20.0681 5.34597 21.5983 6.26238 22.8625 7.46822C23.0832 7.67752 23.4445 7.72022 23.7079 7.56828L25.4208 6.61165C25.7773 6.41228 26.1785 6.53443 26.3774 6.88972C27.1237 8.17508 27.8661 9.51974 28.4684 10.6159C28.6635 10.9645 28.5434 11.3972 28.1903 11.5946L26.4886 12.5512C26.2277 12.6994 26.0812 13.0252 26.1438 13.3186C26.3084 14.0893 26.3886 14.8783 26.3886 15.6988C26.3886 16.5194 26.3084 17.3196 26.1438 18.0903C26.0812 18.3837 26.2277 18.7097 26.4886 18.8577L28.1903 19.8143C28.5434 20.0119 28.6635 20.4444 28.4684 20.793C27.7608 22.0984 27.0103 23.4143 26.3774 24.5192C26.1788 24.8744 25.7776 24.9966 25.4208 24.7972L23.7079 23.8406C23.4445 23.6887 23.0833 23.7314 22.8625 23.9407C21.5983 25.1468 20.0684 26.063 18.3578 26.5878C18.0665 26.6732 17.848 26.9627 17.8461 27.2663V29.224C17.8461 29.6307 17.5409 29.9358 17.1343 29.9358H12.8631C12.4565 29.9358 12.1513 29.6307 12.1513 29.224V27.2663C12.1513 26.9654 11.9381 26.6772 11.6508 26.5878C9.94042 26.0629 8.4103 25.1465 7.14604 23.9407C6.92532 23.7314 6.56408 23.6887 6.30064 23.8406L4.58778 24.7972C4.23125 24.9968 3.81884 24.8744 3.61996 24.5192L1.52898 20.793C1.33384 20.4444 1.46518 20.0117 1.81823 19.8143L3.5199 18.8577C3.78085 18.7095 3.92733 18.3837 3.86476 18.0903C3.70016 17.3196 3.60904 16.5194 3.60904 15.6988C3.60904 14.8783 3.70041 14.0893 3.86476 13.3186C3.92733 13.0251 3.78085 12.6994 3.5199 12.5512L1.81823 11.5946C1.46518 11.3972 1.33409 10.9644 1.52898 10.6159L3.61996 6.88972C3.81858 6.53443 4.23097 6.41228 4.58778 6.61165L6.30064 7.56828C6.56406 7.72022 6.9253 7.67752 7.14604 7.46822C8.4103 6.26206 9.94017 5.34591 11.6508 4.82111C11.9415 4.73073 12.1556 4.43602 12.1513 4.13136V2.17367C12.1513 1.76699 12.4565 1.46187 12.8631 1.46187ZM14.9989 8.22458C10.8792 8.22458 7.52428 11.5796 7.52428 15.6992C7.52428 19.8187 10.8793 23.1737 14.9989 23.1737C19.1185 23.1737 22.4734 19.8187 22.4734 15.6992C22.4734 11.5796 19.1185 8.22458 14.9989 8.22458ZM14.9989 9.64818C18.3491 9.64818 21.0496 12.3489 21.0496 15.699C21.0496 19.0492 18.3491 21.7497 14.9989 21.7497C11.6486 21.7497 8.94807 19.0492 8.94807 15.699C8.94807 12.3487 11.6486 9.64818 14.9989 9.64818Z" fill="#878787"/>
</g>
<defs>
<clipPath id="clip0_12_76">
<rect width="30" height="31.3983" fill="white"/>
</clipPath>
</defs>
</svg>
