<svg width="20" height="21" viewBox="0 0 20 21" fill="none" xmlns="http://www.w3.org/2000/svg">
<g clip-path="url(#clip0_5_27)">
<path d="M14.16 11.1723C14.3657 11.7665 14.3657 12.4065 14.1828 13.0236C14.137 13.1608 14.0914 13.2979 14.0457 13.435C13.8856 13.8463 13.6343 14.2351 13.2914 14.555L8.26282 19.5836C6.95988 20.8865 4.9256 20.9551 3.71425 19.7437L0.879924 16.9095C-0.331505 15.698 -0.240118 13.6638 1.04 12.3609L4.35425 9.04665C4.42281 9.54951 4.55992 10.0524 4.78857 10.4867L2 13.2981C1.2229 14.0752 1.15433 15.2638 1.83992 15.9496L4.69707 18.8067C5.38282 19.4925 6.57144 19.4239 7.34854 18.6466L12.3771 13.618C12.56 13.4352 12.7199 13.2067 12.8342 12.978C12.9256 12.7724 12.9943 12.5667 13.0171 12.3609C13.0857 11.8352 12.9257 11.3323 12.56 10.9666L12.5144 10.9438L9.68006 8.10945C9.42862 7.85801 9.42862 7.42369 9.68006 7.17227C9.9315 6.92084 10.3658 6.92083 10.6172 7.17227L13.4744 10.0294C13.7944 10.3494 14.0229 10.7609 14.1601 11.1723L14.16 11.1723ZM19.12 3.74368L16.2629 0.886531C15.0514 -0.324898 13.0171 -0.233511 11.7143 1.04661L6.68571 6.07518C6.34292 6.41798 6.09147 6.78371 5.93143 7.19522C5.88567 7.33234 5.81711 7.46946 5.79431 7.60657C5.61143 8.22376 5.63423 8.86376 5.81711 9.45796C5.95423 9.89229 6.18286 10.2808 6.52564 10.6008L9.38278 13.458C9.63422 13.7094 10.0685 13.7094 10.32 13.458C10.5714 13.2065 10.5714 12.7722 10.32 12.5208L7.48564 9.70939V9.68659C7.11989 9.32084 6.95997 8.81798 7.02854 8.2923C7.05134 8.08663 7.1199 7.88096 7.21142 7.67512C7.32573 7.44648 7.46285 7.21802 7.66852 7.03512L12.6971 2.00654C13.4742 1.22944 14.6628 1.16087 15.3486 1.84647L18.2057 4.70361C18.8915 5.38937 18.8229 6.57798 18.0456 7.35508L15.1886 10.1665C15.4173 10.6236 15.5544 11.1037 15.623 11.6065L18.9372 8.29227C20.24 6.98933 20.3315 4.95504 19.1201 3.74369L19.12 3.74368Z" fill="white"/>
</g>
<defs>
<clipPath id="clip0_5_27">
<rect width="20" height="20.6122" fill="white"/>
</clipPath>
</defs>
</svg>
